<svg width="36" height="36" viewBox="0 0 36 36" fill="none" xmlns="http://www.w3.org/2000/svg">
<circle cx="18" cy="18" r="18" fill="#4BB462"/>
<path d="M22.3869 27.4618H13.6066C12.6502 27.427 11.7593 26.967 11.1772 26.2073C10.5951 25.4477 10.3826 24.4678 10.5978 23.5353L10.8249 22.4567C11.086 20.9965 12.3412 19.9235 13.8242 19.8926H22.1692C23.6522 19.9235 24.9074 20.9965 25.1686 22.4567L25.3956 23.5353C25.6108 24.4678 25.3983 25.4477 24.8163 26.2073C24.2342 26.967 23.3433 27.427 22.3869 27.4618Z" fill="white"/>
<path d="M18.4691 18.0006H17.5229C15.4327 18.0006 13.7383 16.3062 13.7383 14.216V11.7182C13.7358 10.8742 14.0699 10.0642 14.6666 9.46742C15.2634 8.87068 16.0735 8.53655 16.9174 8.53908H19.0746C19.9185 8.53655 20.7286 8.87068 21.3253 9.46742C21.9221 10.0642 22.2562 10.8742 22.2537 11.7182V14.216C22.2537 15.2197 21.8549 16.1824 21.1452 16.8921C20.4354 17.6019 19.4728 18.0006 18.4691 18.0006Z" fill="white"/>
</svg>
